<mxfile host="app.diagrams.net" modified="2020-10-10T00:31:23.801Z" agent="5.0 (Macintosh; Intel Mac OS X 10_15_7) AppleWebKit/537.36 (KHTML, like Gecko) Chrome/86.0.4240.75 Safari/537.36" etag="IoCjSjKYZNL2j5404GCf" version="13.5.8" type="github">
  <diagram name="Page-1" id="e7e014a7-5840-1c2e-5031-d8a46d1fe8dd">
    <mxGraphModel dx="1168" dy="625" grid="1" gridSize="10" guides="1" tooltips="1" connect="1" arrows="1" fold="1" page="1" pageScale="1" pageWidth="1169" pageHeight="826" background="#ffffff" math="0" shadow="0">
      <root>
        <mxCell id="0" />
        <mxCell id="1" parent="0" />
        <mxCell id="EqBbusVfHMR0FqAXmhcd-61" value="localhost:3000" style="shape=umlFrame;whiteSpace=wrap;html=1;" vertex="1" parent="1">
          <mxGeometry x="10" y="100" width="340" height="420" as="geometry" />
        </mxCell>
        <mxCell id="EqBbusVfHMR0FqAXmhcd-41" value="Mongo&amp;nbsp;&lt;br&gt;Non SQL DB" style="shape=cylinder2;whiteSpace=wrap;html=1;boundedLbl=1;backgroundOutline=1;size=15;" vertex="1" parent="1">
          <mxGeometry x="125" y="413" width="100" height="90" as="geometry" />
        </mxCell>
        <mxCell id="EqBbusVfHMR0FqAXmhcd-43" value="SPA running on Browser&lt;br&gt;(React frontend)" style="html=1;" vertex="1" parent="1">
          <mxGeometry x="50" y="140" width="250" height="60" as="geometry" />
        </mxCell>
        <mxCell id="EqBbusVfHMR0FqAXmhcd-44" value="Node Js&lt;br&gt;(Express Backend)" style="html=1;" vertex="1" parent="1">
          <mxGeometry x="50" y="270" width="250" height="60" as="geometry" />
        </mxCell>
        <mxCell id="EqBbusVfHMR0FqAXmhcd-45" value="Mongo&amp;nbsp;&lt;br&gt;Non SQL DB" style="shape=cylinder2;whiteSpace=wrap;html=1;boundedLbl=1;backgroundOutline=1;size=15;" vertex="1" parent="1">
          <mxGeometry x="545" y="360" width="100" height="90" as="geometry" />
        </mxCell>
        <mxCell id="EqBbusVfHMR0FqAXmhcd-46" value="SPA&lt;br&gt;(React frontend)" style="html=1;" vertex="1" parent="1">
          <mxGeometry x="470" y="70" width="243.75" height="60" as="geometry" />
        </mxCell>
        <mxCell id="EqBbusVfHMR0FqAXmhcd-47" value="Node Js&lt;br&gt;(Express Backend)" style="html=1;" vertex="1" parent="1">
          <mxGeometry x="470" y="200" width="250" height="50" as="geometry" />
        </mxCell>
        <mxCell id="EqBbusVfHMR0FqAXmhcd-50" value="Note" style="shape=note;whiteSpace=wrap;html=1;size=14;verticalAlign=top;align=left;spacingTop=-6;" vertex="1" parent="1">
          <mxGeometry x="450" y="190" width="100" height="70" as="geometry" />
        </mxCell>
        <mxCell id="EqBbusVfHMR0FqAXmhcd-53" value="" style="dashed=0;outlineConnect=0;html=1;align=center;labelPosition=center;verticalLabelPosition=bottom;verticalAlign=top;shape=mxgraph.weblogos.chrome" vertex="1" parent="1">
          <mxGeometry x="165" y="10" width="60" height="60" as="geometry" />
        </mxCell>
        <mxCell id="EqBbusVfHMR0FqAXmhcd-54" value="" style="aspect=fixed;pointerEvents=1;shadow=0;dashed=0;html=1;strokeColor=none;labelPosition=center;verticalLabelPosition=bottom;verticalAlign=top;align=center;fillColor=#00188D;shape=mxgraph.azure.user" vertex="1" parent="1">
          <mxGeometry x="470" y="200" width="47" height="50" as="geometry" />
        </mxCell>
        <mxCell id="EqBbusVfHMR0FqAXmhcd-56" style="edgeStyle=orthogonalEdgeStyle;rounded=0;orthogonalLoop=1;jettySize=auto;html=1;" edge="1" parent="1" source="EqBbusVfHMR0FqAXmhcd-55" target="EqBbusVfHMR0FqAXmhcd-53">
          <mxGeometry relative="1" as="geometry" />
        </mxCell>
        <mxCell id="EqBbusVfHMR0FqAXmhcd-55" value="" style="aspect=fixed;pointerEvents=1;shadow=0;dashed=0;html=1;strokeColor=none;labelPosition=center;verticalLabelPosition=bottom;verticalAlign=top;align=center;fillColor=#00188D;shape=mxgraph.azure.user" vertex="1" parent="1">
          <mxGeometry x="20" y="15" width="47" height="50" as="geometry" />
        </mxCell>
        <mxCell id="EqBbusVfHMR0FqAXmhcd-57" value="Default text" style="strokeWidth=1;html=1;shadow=0;dashed=0;shape=mxgraph.ios.iTextInput;strokeColor=#444444;buttonText=;fontSize=8;whiteSpace=wrap;align=left;" vertex="1" parent="1">
          <mxGeometry x="470" y="210" width="43.5" height="15" as="geometry" />
        </mxCell>
        <mxCell id="EqBbusVfHMR0FqAXmhcd-60" value="" style="ellipse;shape=cloud;whiteSpace=wrap;html=1;" vertex="1" parent="1">
          <mxGeometry x="740" y="300" width="120" height="80" as="geometry" />
        </mxCell>
        <mxCell id="EqBbusVfHMR0FqAXmhcd-62" value="proxy: localhost: 6000" style="rounded=0;whiteSpace=wrap;html=1;" vertex="1" parent="1">
          <mxGeometry x="50" y="200" width="250" height="20" as="geometry" />
        </mxCell>
        <mxCell id="EqBbusVfHMR0FqAXmhcd-63" value="&lt;span&gt;proxy: localhost: 6000&lt;/span&gt;" style="rounded=0;whiteSpace=wrap;html=1;" vertex="1" parent="1">
          <mxGeometry x="50" y="330" width="250" height="20" as="geometry" />
        </mxCell>
      </root>
    </mxGraphModel>
  </diagram>
</mxfile>
